<svg width="31" height="30" viewBox="0 0 31 30" fill="none" xmlns="http://www.w3.org/2000/svg">
<path d="M15.5 3C8.87273 3 3.5 8.37245 3.5 15C3.5 21.6275 8.87273 27 15.5 27C22.1273 27 27.5 21.6275 27.5 15C27.5 8.37245 22.1273 3 15.5 3ZM15.5 24.8182C10.0776 24.8182 5.68182 20.4224 5.68182 15C5.68182 9.57764 10.0776 5.18182 15.5 5.18182C20.9224 5.18182 25.3182 9.57764 25.3182 15C25.3182 20.4224 20.9224 24.8182 15.5 24.8182ZM19.8636 13.9091H16.5909V10.6364C16.5909 10.0339 16.1025 9.54545 15.5 9.54545C14.8975 9.54545 14.4091 10.0339 14.4091 10.6364V13.9091H11.1364C10.5339 13.9091 10.0455 14.3975 10.0455 15C10.0455 15.6025 10.5339 16.0909 11.1364 16.0909H14.4091V19.3636C14.4091 19.9661 14.8975 20.4545 15.5 20.4545C16.1025 20.4545 16.5909 19.9661 16.5909 19.3636V16.0909H19.8636C20.4661 16.0909 20.9545 15.6025 20.9545 15C20.9545 14.3975 20.4661 13.9091 19.8636 13.9091Z" fill="#CCCCCC"/>
</svg>
