<svg width="31" height="30" viewBox="0 0 31 30" fill="none" xmlns="http://www.w3.org/2000/svg">
<path d="M15.5 18.75C17.5711 18.75 19.25 17.0711 19.25 15C19.25 12.9289 17.5711 11.25 15.5 11.25C13.4289 11.25 11.75 12.9289 11.75 15C11.75 17.0711 13.4289 18.75 15.5 18.75Z" stroke="white" stroke-width="1.875" stroke-miterlimit="10" stroke-linecap="round"/>
<path d="M26.5231 9.71813L25.5856 8.09437C25.0681 7.19719 23.9216 6.89062 23.0244 7.40812L22.5313 7.69313C20.6563 8.775 18.3125 7.42219 18.3125 5.2575V4.6875C18.3125 3.65156 17.4734 2.8125 16.4375 2.8125H14.5625C13.5266 2.8125 12.6875 3.65156 12.6875 4.6875V5.2575C12.6875 7.42219 10.3438 8.77594 8.46876 7.69313L7.97563 7.40812C7.07844 6.89062 5.93188 7.19719 5.41438 8.09437L4.47688 9.71813C3.95938 10.6153 4.26594 11.7619 5.16313 12.2794L5.65626 12.5644C7.53126 13.6472 7.53126 16.3528 5.65626 17.4356L5.16313 17.7206C4.26594 18.2381 3.95938 19.3847 4.47688 20.2819L5.41438 21.9056C5.93188 22.8028 7.07844 23.1094 7.97563 22.5919L8.46876 22.3069C10.3438 21.2241 12.6875 22.5778 12.6875 24.7425V25.3125C12.6875 26.3484 13.5266 27.1875 14.5625 27.1875H16.4375C17.4734 27.1875 18.3125 26.3484 18.3125 25.3125V24.7425C18.3125 22.5778 20.6563 21.2241 22.5313 22.3069L23.0244 22.5919C23.9216 23.1094 25.0681 22.8028 25.5856 21.9056L26.5231 20.2819C27.0406 19.3847 26.7341 18.2381 25.8369 17.7206L25.3438 17.4356C23.4688 16.3528 23.4688 13.6472 25.3438 12.5644L25.8369 12.2794C26.7341 11.7619 27.0416 10.6153 26.5231 9.71813Z" stroke="white" stroke-width="1.875" stroke-miterlimit="10" stroke-linecap="round" stroke-linejoin="round"/>
</svg>
