<svg width="31" height="30" viewBox="0 0 31 30" fill="none" xmlns="http://www.w3.org/2000/svg">
<path fill-rule="evenodd" clip-rule="evenodd" d="M8.52758 19.746L17.7823 10.4913L20.009 12.7191L10.7543 21.9738L7.85867 22.6405L8.52758 19.746ZM21.0735 7.20006C21.2957 6.97783 21.5546 6.9445 21.6891 6.9445C21.8235 6.9445 22.0835 6.97783 22.3046 7.20006L23.3002 8.19565C23.5224 8.41787 23.5558 8.67677 23.5558 8.81122C23.5558 8.94567 23.5224 9.20567 23.3002 9.42679L21.3835 11.3435L19.1568 9.11678L21.0735 7.20006ZM6.36196 24.9828L11.7354 23.7427L24.6758 10.8024C25.7747 9.70235 25.7747 7.92008 24.6758 6.82116L23.6802 5.82558C23.1302 5.27556 22.4102 5 21.6891 5C20.969 5 20.2479 5.27556 19.699 5.82558L6.75864 18.7659L5.5186 24.1383C5.41416 24.5905 5.76417 25.0006 6.20085 25.0006C6.25418 25.0006 6.30752 24.995 6.36196 24.9828Z" fill="white"/>
</svg>
