<svg width="56" height="56" viewBox="0 0 56 56" fill="none" xmlns="http://www.w3.org/2000/svg">
<path fill-rule="evenodd" clip-rule="evenodd" d="M0 4C0 1.79086 1.79086 0 4 0H43.4835C44.5475 0 45.5676 0.423865 46.3182 1.17785L54.8347 9.73217C55.581 10.4818 56 11.4965 56 12.5543V52C56 54.2091 54.2091 56 52 56H4C1.79086 56 0 54.2091 0 52V4ZM8.83813 3.9292H36.2305C38.9919 3.9292 41.2305 6.16778 41.2305 8.9292V15.8496C41.2305 18.611 38.9919 20.8496 36.2305 20.8496H8.83813C6.0767 20.8496 3.83813 18.611 3.83813 15.8496V8.9292C3.83813 6.16778 6.07671 3.9292 8.83813 3.9292ZM8.83813 7.9292C8.28585 7.9292 7.83813 8.37691 7.83813 8.9292V15.8496C7.83813 16.4018 8.28585 16.8496 8.83813 16.8496H36.2305C36.7828 16.8496 37.2305 16.4018 37.2305 15.8496V8.9292C37.2305 8.37691 36.7828 7.9292 36.2305 7.9292H8.83813ZM33.2102 41.013V41.2525C33.2102 44.1726 30.8429 46.5398 27.9228 46.5398C25.0027 46.5398 22.6355 44.1726 22.6355 41.2525V41.013C22.6355 38.0929 25.0027 35.7256 27.9228 35.7256C30.8429 35.7256 33.2102 38.0929 33.2102 41.013ZM17.6355 41.013C17.6355 35.3314 22.2413 30.7256 27.9228 30.7256C33.6044 30.7256 38.2102 35.3314 38.2102 41.013V41.2525C38.2102 46.934 33.6044 51.5398 27.9228 51.5398C22.2413 51.5398 17.6355 46.934 17.6355 41.2525V41.013Z" fill="black"/>
</svg>
