<svg width="30" height="30" viewBox="0 0 30 30" fill="none" xmlns="http://www.w3.org/2000/svg">
<path d="M20.543 22.5126L15.6913 17.5928C15.2894 17.1853 15.2894 16.5245 15.6913 16.1169C16.0932 15.7093 16.7449 15.7093 17.1468 16.1169L21.9986 21.0366C22.4005 21.4442 22.4005 22.105 21.9986 22.5126C21.5966 22.9201 20.945 22.9201 20.543 22.5126Z" fill="white"/>
<path fill-rule="evenodd" clip-rule="evenodd" d="M12.6375 16.4272C14.6586 16.4272 16.2969 14.7658 16.2969 12.7165C16.2969 10.6672 14.6586 9.00585 12.6375 9.00585C10.6165 9.00585 8.97811 10.6672 8.97811 12.7165C8.97811 14.7658 10.6165 16.4272 12.6375 16.4272ZM12.6375 7C15.751 7 18.275 9.55932 18.275 12.7165C18.275 15.8737 15.751 18.433 12.6375 18.433C9.52394 18.433 7 15.8737 7 12.7165C7 9.55932 9.52394 7 12.6375 7Z" fill="white"/>
</svg>
