<svg width="31" height="30" viewBox="0 0 31 30" fill="none" xmlns="http://www.w3.org/2000/svg">
<path d="M23.4661 6.82769H19.2246V5.41385C19.2246 4.6327 18.5919 4 17.8107 4H13.5692C12.7881 4 12.1554 4.6327 12.1554 5.41385V6.82769H7.91385C7.1327 6.82769 6.5 7.46039 6.5 8.24154V9.65539C6.5 10.4358 7.1327 11.0685 7.91243 11.0692H23.4668C24.2473 11.0685 24.88 10.4358 24.88 9.65539V8.24151C24.8799 7.46039 24.2472 6.82769 23.4661 6.82769ZM17.8107 6.82769H13.5692V6.12075C13.5692 5.73054 13.8859 5.41382 14.2761 5.41382H17.1038C17.494 5.41382 17.8107 5.73051 17.8107 6.12075V6.82769ZM7.91382 23.7938C7.91382 25.3554 9.1799 26.6215 10.7415 26.6215H20.6384C22.2 26.6215 23.4661 25.3554 23.4661 23.7938V12.483H7.91382V23.7938ZM18.5177 14.6038C18.5177 14.2136 18.8344 13.8969 19.2246 13.8969C19.6148 13.8969 19.9315 14.2136 19.9315 14.6038V23.0869C19.9315 23.4771 19.6148 23.7938 19.2246 23.7938C18.8344 23.7938 18.5177 23.4771 18.5177 23.0869V14.6038ZM14.983 14.6038C14.983 14.2136 15.2997 13.8969 15.69 13.8969C16.0802 13.8969 16.3969 14.2136 16.3969 14.6038V23.0869C16.3969 23.4771 16.0802 23.7938 15.69 23.7938C15.2998 23.7938 14.983 23.4771 14.983 23.0869V14.6038ZM11.4484 14.6038C11.4484 14.2136 11.7651 13.8969 12.1554 13.8969C12.5456 13.8969 12.8623 14.2136 12.8623 14.6038V23.0869C12.8623 23.4771 12.5456 23.7938 12.1554 23.7938C11.7651 23.7938 11.4484 23.4771 11.4484 23.0869V14.6038Z" fill="white"/>
</svg>
